<svg xmlns="http://www.w3.org/2000/svg" width="200" height="200" viewBox="0 0 200 200">
<path d="M136 120 L 176 186" stroke="#2B2320" stroke-width="10" stroke-linecap="round"/><path d="M136 120 L 176 186" stroke="#7A2A20" stroke-width="5" stroke-linecap="round"/>
<rect x="64" y="136" width="72" height="50" rx="16" fill="#3A4E7A" stroke="#2B2320" stroke-width="6" stroke-linejoin="round" stroke-linecap="round"/>
<path d="M82 136 L 100 158 L 118 136" fill="#F2E6CF" stroke="#2B2320" stroke-width="4" stroke-linejoin="round"/>
<circle cx="100" cy="102" r="40" fill="#FCE3CF" stroke="#2B2320" stroke-width="5"/>
<path d="M62 92 C 70 84, 130 84, 138 92 L 138 80 L 62 80 Z" fill="#2B2320"/>
<g><ellipse cx="84" cy="106" rx="8" ry="10" fill="#2B2320"/><ellipse cx="84" cy="109" rx="5" ry="5" fill="#7A5236"/><ellipse cx="84" cy="112" rx="3" ry="1" fill="#2B2320" opacity="0.35"/><circle cx="81" cy="101" r="4" fill="#FFFFFF"/><circle cx="87.5" cy="112" r="1.8" fill="#FFFFFF"/><ellipse cx="116" cy="106" rx="8" ry="10" fill="#2B2320"/><ellipse cx="116" cy="109" rx="5" ry="5" fill="#7A5236"/><ellipse cx="116" cy="112" rx="3" ry="1" fill="#2B2320" opacity="0.35"/><circle cx="113" cy="101" r="4" fill="#FFFFFF"/><circle cx="119.5" cy="112" r="1.8" fill="#FFFFFF"/></g>
<path d="M92 124 h 16" stroke="#2B2320" stroke-width="3.5" stroke-linecap="round"/>
<path d="M100 24 L 182 84 Q 100 98 18 84 Z" fill="#D8B25C" stroke="#2B2320" stroke-width="6" stroke-linejoin="round" stroke-linecap="round"/>
<path d="M100 24 L 60 86 M100 24 L 140 86 M100 24 L 100 92" stroke="#B9852E" stroke-width="3"/>
</svg>
