<svg xmlns="http://www.w3.org/2000/svg" width="200" height="200" viewBox="0 0 200 200">
<rect x="62" y="134" width="76" height="52" rx="18" fill="#2C3B5E" stroke="#2B2320" stroke-width="6" stroke-linejoin="round" stroke-linecap="round"/>
<path d="M80 134 L 100 158 L 120 134" fill="#FFFFFF" stroke="#2B2320" stroke-width="4" stroke-linejoin="round"/>
<path d="M94 152 L 106 152 L 102 176 L 98 176 Z" fill="#D9503B" stroke="#2B2320" stroke-width="3" stroke-linejoin="round"/>
<path d="M40 64 L 44 14 L 84 42 Z M160 64 L 156 14 L 116 42 Z" fill="#8A5A3B" stroke="#2B2320" stroke-width="6" stroke-linejoin="round" stroke-linecap="round"/>
<path d="M50 54 L 52 30 L 72 44 Z M150 54 L 148 30 L 128 44 Z" fill="#F7A7A0"/>
<path d="M38 96 C 34 54, 62 32, 100 32 C 138 32, 166 54, 162 96 C 166 118, 158 134, 148 138 L 52 138 C 42 134, 34 118, 38 96 Z" fill="#8A5A3B" stroke="#2B2320" stroke-width="6" stroke-linejoin="round" stroke-linecap="round"/>
<circle cx="100" cy="92" r="44" fill="#FCE3CF" stroke="#2B2320" stroke-width="5"/>
<path d="M56 82 C 62 56, 86 50, 100 56 C 112 48, 138 54, 144 82 C 132 70, 120 70, 110 74 L 104 62 L 96 76 C 84 68, 68 70, 56 82 Z" fill="#8A5A3B" stroke="#2B2320" stroke-width="4" stroke-linejoin="round"/>
<ellipse cx="83" cy="96" rx="10" ry="14" fill="#2B2320"/><ellipse cx="83" cy="99" rx="7" ry="9" fill="#D9A23B"/><ellipse cx="83" cy="102" rx="5" ry="5" fill="#2B2320" opacity="0.35"/><circle cx="80" cy="91" r="4" fill="#FFFFFF"/><circle cx="86.5" cy="102" r="1.8" fill="#FFFFFF"/><ellipse cx="117" cy="96" rx="10" ry="14" fill="#2B2320"/><ellipse cx="117" cy="99" rx="7" ry="9" fill="#D9A23B"/><ellipse cx="117" cy="102" rx="5" ry="5" fill="#2B2320" opacity="0.35"/><circle cx="114" cy="91" r="4" fill="#FFFFFF"/><circle cx="120.5" cy="102" r="1.8" fill="#FFFFFF"/><path d="M92 116 q 4 5 8 0 q 4 5 8 0" fill="none" stroke="#2B2320" stroke-width="3" stroke-linecap="round"/><ellipse cx="73" cy="112" rx="8" ry="4.5" fill="#F7A7B5" opacity="0.75"/><ellipse cx="127" cy="112" rx="8" ry="4.5" fill="#F7A7B5" opacity="0.75"/>
</svg>
