<svg xmlns="http://www.w3.org/2000/svg" width="200" height="200" viewBox="0 0 200 200">
<path d="M100 18 C 70 28, 34 56, 30 104 C 26 150, 60 180, 100 186 C 140 180, 174 150, 170 104 C 166 56, 130 28, 100 18 Z" fill="#F6D365" opacity="0.55"/>
<path d="M100 26 C 76 36, 46 60, 44 104 C 42 140, 68 168, 100 172 C 132 168, 158 140, 156 104 C 154 60, 124 36, 100 26 Z" fill="#EE9B45" opacity="0.45"/>
<rect x="64" y="138" width="72" height="48" rx="18" fill="#2C3B5E" stroke="#2B2320" stroke-width="6" stroke-linejoin="round" stroke-linecap="round"/>
<path d="M60 136 C 80 150, 120 150, 140 136 L 152 150 C 144 156, 132 152, 128 146" fill="#D9503B" stroke="#2B2320" stroke-width="4" stroke-linejoin="round"/>
<path d="M44 92 L 30 60 L 56 70 L 52 34 L 78 56 L 88 22 L 102 52 L 118 20 L 124 54 L 150 34 L 146 68 L 172 58 L 156 92 Z" fill="#3BB3A6" stroke="#2B2320" stroke-width="6" stroke-linejoin="round" stroke-linecap="round"/>
<circle cx="100" cy="98" r="44" fill="#FCE3CF" stroke="#2B2320" stroke-width="5"/>
<path d="M56 86 L 70 64 L 82 78 L 96 58 L 104 76 L 120 60 L 128 78 L 144 66 L 144 86 C 126 78, 74 78, 56 86 Z" fill="#3BB3A6" stroke="#2B2320" stroke-width="4" stroke-linejoin="round"/>
<path d="M68 90 L 88 96 M132 90 L 112 96" stroke="#2B2320" stroke-width="5" stroke-linecap="round"/>
<ellipse cx="80" cy="104" rx="9" ry="12" fill="#2B2320"/><ellipse cx="80" cy="107" rx="6" ry="7" fill="#D9503B"/><ellipse cx="80" cy="110" rx="4" ry="3" fill="#2B2320" opacity="0.35"/><circle cx="77" cy="99" r="4" fill="#FFFFFF"/><circle cx="83.5" cy="110" r="1.8" fill="#FFFFFF"/><ellipse cx="120" cy="104" rx="9" ry="12" fill="#2B2320"/><ellipse cx="120" cy="107" rx="6" ry="7" fill="#D9503B"/><ellipse cx="120" cy="110" rx="4" ry="3" fill="#2B2320" opacity="0.35"/><circle cx="117" cy="99" r="4" fill="#FFFFFF"/><circle cx="123.5" cy="110" r="1.8" fill="#FFFFFF"/>
<path d="M90 124 q 10 8 20 0" fill="none" stroke="#2B2320" stroke-width="3.5" stroke-linecap="round"/>
<rect x="124" y="112" width="18" height="9" rx="3" fill="#FFF6E4" stroke="#2B2320" stroke-width="2.5" transform="rotate(-15 133 116)"/>
</svg>
